# xmcd
#
# Track frame offsets: 
#        150
#        11727
#        24068
#        40520
#        52438
#        65291
#        80258
#        92141
#        107744
#        119238
#        130168
#        142924
#        154408
#
# Disc length: 2440 seconds
#
# Revision: 0
# Processed by: cddbd v1.5.1PL2 Copyright (c) Steve Scherf et al.
# Submitted via: ExactAudioCopy v0.90b4
#
DISCID=ab09860d
DTITLE=The Curst Sons - Hell Awaits You
DYEAR=2005
DGENRE=Country
TTITLE0=Little Notebook
TTITLE1=Graveyard Dirt
TTITLE2=When I Give You My Love
TTITLE3=Hell Awaits You
TTITLE4=On the Road Again
TTITLE5=WTMY Blues
TTITLE6=Hobo
TTITLE7=Young Bride
TTITLE8=Golden Vanity
TTITLE9=Voodoo Slim
TTITLE10=Cast em Away
TTITLE11=Sam Hall
TTITLE12=Joanne
EXTD=
EXTT0=
EXTT1=
EXTT2=
EXTT3=
EXTT4=
EXTT5=
EXTT6=
EXTT7=
EXTT8=
EXTT9=
EXTT10=
EXTT11=
EXTT12=
PLAYORDER=
